<svg xmlns="http://www.w3.org/2000/svg" viewBox="0 0 200 200" fill="none">
  <rect width="200" height="200" fill="#f0f2f5"/>
  <g transform="translate(100 100)">
    <path d="M-30 -30 a30 30 0 1 1 60 0 c0 18 -10 26 -14 36 l-32 0 c-4 -10 -14 -18 -14 -36 z" fill="#f5a623" stroke="#1c1f24" stroke-width="2"/>
    <rect x="-16" y="14" width="32" height="6" rx="1" fill="#5b6470"/>
    <rect x="-14" y="22" width="28" height="6" rx="1" fill="#5b6470"/>
    <rect x="-12" y="30" width="24" height="6" rx="1" fill="#5b6470"/>
    <path d="M-8 38 q8 8 16 0" stroke="#5b6470" stroke-width="3" stroke-linecap="round" fill="none"/>
    <g stroke="#f5a623" stroke-width="2" stroke-linecap="round">
      <line x1="-50" y1="-50" x2="-58" y2="-58"/>
      <line x1="50" y1="-50" x2="58" y2="-58"/>
      <line x1="-60" y1="-20" x2="-70" y2="-20"/>
      <line x1="60" y1="-20" x2="70" y2="-20"/>
      <line x1="0" y1="-60" x2="0" y2="-72"/>
    </g>
  </g>
</svg>
